<svg viewBox="0 0 149 139" version="1.1" xmlns="http://www.w3.org/2000/svg" xmlns:xlink="http://www.w3.org/1999/xlink">
    <!-- Generator: Sketch 48.2 (47327) - http://www.bohemiancoding.com/sketch -->
    <title>select</title>
    <desc>Created with Sketch.</desc>
    <defs></defs>
    <g id="Page-1" stroke="none" stroke-width="1" fill="none" fill-rule="evenodd">
        <g id="select" fill="#2eaefe" fill-rule="nonzero">
            <path d="M146.764,12.379 C143.834,9.449 139.085,9.45 136.158,12.38 L68.852,79.697 L46.847,57.691 C43.917,54.762 39.168,54.761 36.241,57.69 C33.311,60.619 33.311,65.368 36.24,68.296 L63.549,95.607 C64.956,97.014 66.863,97.804 68.853,97.804 C70.842,97.804 72.75,97.014 74.157,95.607 L146.766,22.985 C149.693,20.057 149.693,15.308 146.764,12.379 Z" id="Shape"></path>
            <path d="M130.57,60.445 C126.428,60.445 123.07,63.802 123.07,67.945 L123.07,123.515 L15,123.515 L15,15.445 L100.57,15.445 C104.713,15.445 108.07,12.088 108.07,7.945 C108.07,3.803 104.713,0.445 100.57,0.445 L7.5,0.445 C3.358,0.445 0,3.802 0,7.945 L0,131.015 C0,135.158 3.358,138.515 7.5,138.515 L130.57,138.515 C134.713,138.515 138.07,135.158 138.07,131.015 L138.07,67.945 C138.07,63.803 134.713,60.445 130.57,60.445 Z" id="Shape"></path>
        </g>
    </g>
</svg>