<svg height="512pt" viewBox="-66 0 512 512" width="512pt" xmlns="http://www.w3.org/2000/svg"><path d="m191.164062.00390625-.800781-.00390625c-104.964843 0-190.363281 85.40625-190.363281 190.386719 0 57.554687 29.417969 102.445312 62.195312 147.144531l127.917969 174.46875 128.46875-174.464844c32.773438-44.699218 62.195313-89.589844 62.195313-147.144531 0-104.71875-84.992188-189.960937-189.613282-190.38671875zm103.226563 319.79296875s-99.371094 135.890625-103.871094 142.019531l-104.132812-142.023437c-30.851563-42.074219-56.386719-80.855469-56.386719-129.40625 0-88.191407 71.535156-159.984375 159.617188-160.386719h.769531c88.441406 0 160.390625 71.953125 160.390625 160.390625 0 48.550781-25.539063 87.328125-56.386719 129.40625zm0 0"/><path d="m190.386719 66.664062c-68.21875 0-123.722657 55.503907-123.722657 123.726563 0 68.21875 55.503907 123.722656 123.722657 123.722656 68.222656 0 123.726562-55.503906 123.726562-123.726562 0-68.21875-55.503906-123.722657-123.726562-123.722657zm0 217.449219c-51.679688 0-93.722657-42.046875-93.722657-93.726562 0-51.679688 42.042969-93.722657 93.722657-93.722657 51.683593 0 93.726562 42.042969 93.726562 93.722657 0 51.683593-42.046875 93.726562-93.726562 93.726562zm0 0"/><path d="m200.425781 126.234375h-43.828125v129.757813h29.996094v-40.585938l12.996094.246094c12.089844.226562 23.519531-4.316406 32.15625-12.792969 8.636718-8.476563 13.394531-19.808594 13.394531-31.910156 0-24.660157-20.058594-44.714844-44.714844-44.714844zm10.308594 55.210937c-2.84375 2.792969-6.617187 4.285157-10.582031 4.210938l-13.558594-.253906v-29.167969h13.832031c8.113281 0 14.714844 6.597656 14.714844 14.710937 0 3.984376-1.566406 7.710938-4.40625 10.5zm0 0"/></svg>