<?xml version="1.0" encoding="iso-8859-1"?>
<!-- Generator: Adobe Illustrator 19.0.0, SVG Export Plug-In . SVG Version: 6.00 Build 0)  -->
<svg version="1.1" id="Capa_1" xmlns="http://www.w3.org/2000/svg" xmlns:xlink="http://www.w3.org/1999/xlink" x="0px" y="0px"
	 viewBox="0 0 463 463" style="enable-background:new 0 0 463 463;" xml:space="preserve">
<g>
	<path d="M396.99,189.084L385.251,36.471C383.677,16.02,366.378,0,345.867,0H106.021C91.74,0,79.696,11.153,78.602,25.391
		c-0.585,7.613,2.054,15.192,7.242,20.794S98.385,55,106.021,55H263.5c13.509,0,24.5,10.991,24.5,24.5S277.009,104,263.5,104
		H101.725c-16.357,0-30.152,12.775-31.407,29.084l-4.308,56c-0.67,8.72,2.353,17.401,8.295,23.819
		C80.247,219.32,88.671,223,97.417,223H296v8.5c0,8.547,6.953,15.5,15.5,15.5H328v9h-8.5c-4.142,0-7.5,3.358-7.5,7.5
		s3.358,7.5,7.5,7.5h8.5v73h-8.5c-4.142,0-7.5,3.358-7.5,7.5s3.358,7.5,7.5,7.5h8.5v9h-2.02c-12.125,0-22.177,9.098-23.384,21.162
		l-4.8,48c-0.659,6.594,1.513,13.194,5.959,18.107c4.446,4.914,10.797,7.731,17.424,7.731h28.641c6.626,0,12.978-2.818,17.424-7.731
		c4.447-4.913,6.619-11.513,5.959-18.107l-4.8-48C367.197,377.098,357.145,368,345.02,368H343v-9h8.5c4.142,0,7.5-3.358,7.5-7.5
		s-3.358-7.5-7.5-7.5H343v-73h8.5c4.142,0,7.5-3.358,7.5-7.5s-3.358-7.5-7.5-7.5H343v-9h16.5c8.547,0,15.5-6.953,15.5-15.5v-9.952
		c5.192-1.631,9.94-4.59,13.695-8.645C394.638,206.485,397.661,197.804,396.99,189.084z M314.877,445.204
		c-1.632-1.803-2.397-4.129-2.155-6.55l4.8-48c0.436-4.363,4.072-7.654,8.458-7.654H328v65h-6.82
		C318.748,448,316.509,447.007,314.877,445.204z M345.02,383c4.386,0,8.022,3.291,8.458,7.654l4.8,48
		c0.242,2.42-0.523,4.747-2.155,6.55S352.252,448,349.82,448H343v-65H345.02z M359.5,232h-48c-0.276,0-0.5-0.224-0.5-0.5V223h49v8.5
		C360,231.776,359.776,232,359.5,232z M377.689,202.711c-3.159,3.411-7.458,5.289-12.106,5.289H97.417
		c-4.648,0-8.948-1.878-12.106-5.289c-3.158-3.411-4.701-7.842-4.345-12.477l4.308-56C85.931,125.692,93.157,119,101.725,119H263.5
		c21.78,0,39.5-17.72,39.5-39.5S285.28,40,263.5,40H106.021c-3.521,0-6.779-1.423-9.171-4.007s-3.562-5.94-3.292-9.452
		C94.055,20.069,99.529,15,106.021,15h239.847c12.722,0,23.452,9.937,24.428,22.621l11.739,152.613
		C382.391,194.869,380.848,199.3,377.689,202.711z"/>
	<path d="M355.568,131.586c-0.343-0.345-0.713-0.646-1.101-0.91C347.402,124.062,337.919,120,327.5,120
		c-21.78,0-39.5,17.72-39.5,39.5c0,10.348,4.005,19.775,10.54,26.825c0.259,0.383,0.554,0.749,0.892,1.089
		c0.343,0.345,0.712,0.645,1.099,0.909C307.597,194.938,317.081,199,327.5,199c21.78,0,39.5-17.72,39.5-39.5
		c0-10.348-4.005-19.775-10.54-26.825C356.2,132.292,355.906,131.926,355.568,131.586z M327.5,135c4.051,0,7.872,0.994,11.242,2.743
		l-33.061,32.879c-1.71-3.34-2.681-7.119-2.681-11.122C303,145.991,313.991,135,327.5,135z M327.5,184
		c-4.051,0-7.872-0.994-11.242-2.743l33.061-32.879c1.71,3.34,2.681,7.119,2.681,11.122C352,173.009,341.009,184,327.5,184z"/>
	<path d="M255.5,144h-48c-4.142,0-7.5,3.358-7.5,7.5s3.358,7.5,7.5,7.5h48c4.142,0,7.5-3.358,7.5-7.5S259.642,144,255.5,144z"/>
	<path d="M255.5,168h-48c-4.142,0-7.5,3.358-7.5,7.5s3.358,7.5,7.5,7.5h48c4.142,0,7.5-3.358,7.5-7.5S259.642,168,255.5,168z"/>
</g>
<g>
</g>
<g>
</g>
<g>
</g>
<g>
</g>
<g>
</g>
<g>
</g>
<g>
</g>
<g>
</g>
<g>
</g>
<g>
</g>
<g>
</g>
<g>
</g>
<g>
</g>
<g>
</g>
<g>
</g>
</svg>
